<svg xmlns="http://www.w3.org/2000/svg" xmlns:xlink="http://www.w3.org/1999/xlink" width="600" height="800" viewBox="0 0 600 800">
  <defs>
    <clipPath id="clip-Artboard_1">
      <rect width="600" height="800"/>
    </clipPath>
  </defs>
  <g id="Artboard_1" data-name="Artboard 1" clip-path="url(#clip-Artboard_1)">
    <g id="Shadow">
      <g id="Сгруппировать_1" data-name="Сгруппировать 1" opacity="0.1">
        <path id="Контур_1" data-name="Контур 1" d="M417.823,695.584c-1.965-8.2-6.925-15.433-6.709-23.715.3-9.916-3.934-17.229-16.382-24.473-10.237-5.91-23.3-5.947-35.982-9.054-14.728-3.618-26.432-11.739-43.288-11.777-15.5-.028-25.475,3.961-36.171,8.938a138.387,138.387,0,0,0-25.732,7.655c-6.67.788-13.618,1.4-19.758,3.039-12.476,3.343-23.917,9.745-24.263,18.179a9.481,9.481,0,0,0,.693,3.7c-.654,3.371-.864,6.79-1.667,9.811-.963,3.628-2.058,7.237-3.038,10.856-1.108,4.093-5.429,8.452-5.208,12.631.405,7.941,12.854,14.408,19.775,20.62,7.005,6.288,10.509,13.3,19.342,18.4a40.509,40.509,0,0,0,6.818,3.1c11.418,4.037,23.778,3.486,35.779,5.965,14.232,2.935,27.628,5.784,42.833,6.724,12.942.788,22-3.163,30.681-8.415,3.6-2.166,6.024-4.568,9.49-6.411,1.866-.665,3.682-1.358,5.76-2.166,7.549-1.738,14.965-.94,22.263-3.656,10.455-3.9,18.961-10.448,23.777-17.02C422.744,710.505,419.771,703.866,417.823,695.584Z" fill="#afafaf"/>
      </g>
    </g>
    <g id="Trunk">
      <path id="Контур_2" data-name="Контур 2" d="M367.806,362.613c-2.717.5-3.634,2.908-4.8,4.472a50.748,50.748,0,0,0-5.026,8.644c-2.336,4.784-8.953,7.056-15.752,8.606-.023-.123-.044-.245-.069-.367a20.83,20.83,0,0,0,2.083-3.919c1.221-3.216,1.5-10.047,4.166-12.452.9-.807-.066-4.906-1.07-4.211-3.593,2.492-3.6,4.549-4.648,7.787-1.98,6.136-5.768,10.318-11.876,14.851-5.221,3.875-11,4.986-17.191,7.66.209-11.331,1.371-21.679,7.973-33.032,7.523-12.936,19.9-22.951,25.139-36.655,4.787-1.123-5.469-2.31-8.416-1.9l-1.378.19c-1.051.145-2.932.355-3.272,1.215-5.82,14.756-21.137,25.021-28.964,39.04-.034.06-.061.12-.1.181-.087-2.321-.171-4.643-.171-6.949,0-1.185-4.2-1.759-8.482-1.733h0c-4.445.027-8.975.7-8.975,2.027,0,11.588,1.468,23.311,2.909,34.742,1.391,11.051.2,22.142-.685,33.189-3.839-3.584-8.266-6.9-12.565-10.223-9.864-7.617-15.727-16.64-19.834-26.439-1.56-3.717-1.554-7.468-3.993-11.044-3.38-4.959-9.008-8.241-11.548-13.653-.491-1.047-6.413-.53-6.161.1,1.325,3.335,3.5,5.663,6.033,8.668a32.9,32.9,0,0,1,5.447,9c-2.806-.575-5.776-.988-8.258-1.59-5.812-1.409-7.285-4.232-10.668-7.316a81.152,81.152,0,0,1-9.728-10.3c-2.311-2.945-4.261-5.988-7.612-8.453-.22-.161-.229.714-.147.828,3.086,4.308,5.855,8.621,8.973,12.919,2.734,3.769,6.446,6.838,9.565,10.446,2.245,2.6,3.218,4.413,7.3,5.841,3.712,1.3,8.529,1.793,12.5,2.97.182.564.365,1.129.552,1.716,2.356,7.363,4.525,16.333,9.7,23.056,6.608,8.577,16.5,14.555,20.5,24.285,2.572,6.253,3.629,11.738,8.926,16.292-.108,24.659,1.575,49.32,2.132,73.923.316,14-1.672,27.8-1.415,41.852a29.165,29.165,0,0,0,.653,5.224c-.574,4.521-.324,9.115-.484,13.85-.08,2.357-.216,4.912-.153,7.472a13.741,13.741,0,0,0-1.989,6.713c.1,15.488-.077,30.8-.332,46.274a54.353,54.353,0,0,1-.614,6.877c.155,6.468-2.36,13.177-4.083,19.334-1.311,4.679-4.006,8.5-5.9,13.022a7.522,7.522,0,0,0-.131,6.459,12.734,12.734,0,0,0,3.583,3.011c.018-.007.04,0,.058-.011,7.959,3.827,21.173,6.646,28.975,6.869,1.066.03,2.253.028,3.48.008h0c5.741-.091,12.795-.761,17.264-2.432a9.34,9.34,0,0,0,1.3-.662c.985-.869,2.317-1.552,3.476-2.414a10.026,10.026,0,0,0,3.669-5.1,13.386,13.386,0,0,0-.861-5.152c-.02-.059-.035-.117-.055-.176-.1-.054-.179-.121-.284-.173-7.432-9.855-4.277-27.122-6.616-36.8-3.671-15.2-8.047-29.556-8.377-45.051q-.975-45.741-6.284-91.367c-.123-1.046-.188-2.1-.3-3.146,1.95-5.117,2.652-11.293,3.288-16.4,1.268-10.171,5.485-19.618,9.066-30.1,2.523-7.389,8.467-13.2,10.4-20.636.108-.418.158-.835.245-1.253,6.478-5.942,15.245-8.1,18.608-17.841,3.031-8.781,1.88-21.089.76-30.28-.192-1.577-1.119-1.441-1.309.033-1.664,12.9,1.162,26.9-12.04,33.966a40.886,40.886,0,0,0-4.13,2.581c.07-.266.1-.529.18-.795,3.9-13.044-.052-26.192,2.333-39.2,1.062-.387,2.13-.79,3.258-1.2,3.471-1.272,7.6-2.175,10.227-4.312,6.5-5.29,4.8-14.038,12.251-19.173C368.429,364.61,368.579,362.47,367.806,362.613Zm-30.978,59.022c-3.348,13.325-9.393,24.108-15.9,36.248-3.309,6.171-6.117,11.588-8.033,17.556-.453-24.146.651-48.414.669-72.436,3.429-1.426,7.12-2.65,10.374-3.811,4.73-1.687,7.988-4.681,11.349-7.537.124-.105.229-.219.351-.325.443-.058.838-.157,1.258-.235C336.351,401.148,339.287,411.848,336.828,421.635Z" fill="#987b55"/>
    </g>
    <g id="Shadow_Trunk">
      <path id="Контур_3" data-name="Контур 3" d="M367.806,362.613c-2.717.5-3.634,2.908-4.8,4.472a50.748,50.748,0,0,0-5.026,8.644c-2.336,4.784-8.953,7.056-15.752,8.606-.023-.123-.044-.245-.069-.367a20.83,20.83,0,0,0,2.083-3.919c1.221-3.216,1.5-10.047,4.166-12.452.9-.807-.066-4.906-1.07-4.211-3.593,2.492-3.6,4.549-4.648,7.787-1.98,6.136-5.768,10.318-11.876,14.851-5.221,3.875-11,4.986-17.191,7.66.209-11.331,1.371-21.679,7.973-33.032,7.523-12.936,19.9-22.951,25.139-36.655,4.787-1.123-5.469-2.31-8.416-1.9l-1.378.19c-1.051.145-2.932.355-3.272,1.215-5.82,14.756-21.137,25.021-28.964,39.04-.034.06-.061.12-.1.181-.087-2.321-.171-4.643-.171-6.949,0-1.185-4.2-1.759-8.482-1.733,2.227,12.788,6.715,40.321,5.674,48.92-1.373,11.332-1.065,46.463.154,64s2.591,95.279,4.65,110.356,2.744,49.944,4.117,65.021.686,17.433,0,32.981a135.306,135.306,0,0,0,1.423,26.66c5.741-.091,12.795-.761,17.264-2.432a9.34,9.34,0,0,0,1.3-.662c.985-.869,2.317-1.552,3.476-2.414a10.026,10.026,0,0,0,3.669-5.1,13.386,13.386,0,0,0-.861-5.152c-.02-.059-.035-.117-.055-.176-.1-.054-.179-.121-.284-.173-7.432-9.855-4.277-27.122-6.616-36.8-3.671-15.2-8.047-29.556-8.377-45.051q-.975-45.741-6.284-91.367c-.123-1.046-.188-2.1-.3-3.146,1.95-5.117,2.652-11.293,3.289-16.4,1.267-10.171,5.484-19.618,9.065-30.1,2.523-7.389,8.467-13.2,10.4-20.636.108-.417.158-.835.245-1.253,6.478-5.942,15.245-8.1,18.608-17.841,3.031-8.781,1.88-21.089.76-30.28-.192-1.577-1.119-1.441-1.309.033-1.664,12.9,1.162,26.9-12.04,33.966a40.886,40.886,0,0,0-4.13,2.581c.07-.266.1-.529.18-.795,3.9-13.044-.052-26.192,2.333-39.2,1.062-.387,2.13-.79,3.258-1.2,3.471-1.272,7.6-2.175,10.227-4.312,6.5-5.29,4.8-14.038,12.251-19.173C368.429,364.61,368.579,362.47,367.806,362.613Zm-30.978,59.022c-3.348,13.325-9.393,24.108-15.9,36.249-3.309,6.17-6.117,11.587-8.033,17.555-.453-24.146.651-48.414.669-72.436,3.429-1.426,7.12-2.65,10.374-3.811,4.73-1.687,7.988-4.681,11.349-7.537.124-.105.229-.219.351-.325.443-.058.838-.157,1.258-.235C336.351,401.148,339.287,411.848,336.828,421.635Z" fill="#775f44"/>
    </g>
    <g id="Crown">
      <path id="Контур_4" data-name="Контур 4" d="M407.555,269.022c-3.284-15.645-19.272-20.779-24.145-34.929-3.853-11.189,2.789-18.818,4.06-29.257.989-8.115-1.553-17.017-2.554-25.119-1.335-10.813-.856-17.469,2.717-27.652,2.915-8.311,2.325-15.038,1.1-23.8-1.332-9.506-4.453-15.474-9.709-23.423-7.01-10.6-11.319-21.82-17.2-32.96-8.411-15.922-23.1-17.5-39.411-20.194-.163-.027-.325-.058-.488-.085-16.193-2.706-32.223-7.122-48.58-7.988a95.7,95.7,0,0,0-12.779.123c-10.293.867-17.537,11.3-23.335,19.174-11.107,15.076-23,34.855-29.291,52.563a59.513,59.513,0,0,0-.686,35.156c2.486,7.961,8.462,14.241,11.233,22.125,4.222,12.01,5.705,27.311.143,38.928-13.836,28.9-42.355,50.784-35.327,86.213,2.926,14.75,12.4,29.113,18.074,43.067,5.18,12.736,14.079,24.857,23.431,35.481,2.076,2.359,4.168,4.67,6.254,6.869,10.624,11.2,25.465,14.253,40.065,17.3,15.268,3.186,26.011,5.26,41.493,1.509,17.794-4.311,33.906,6.844,51.6-.915,13.19-5.785,25.95-17.014,30.4-31.039,5.234-16.49,4.873-34.236,10.114-50.841C410.105,302.282,411.253,286.639,407.555,269.022Z" fill="#6b8241"/>
    </g>
    <g id="Shadow_Crow">
      <path id="Контур_5" data-name="Контур 5" d="M407.554,269.023c-3.283-15.646-19.271-20.78-24.144-34.93-3.853-11.189,2.789-18.818,4.06-29.257.989-8.115-1.554-17.017-2.554-25.119-1.335-10.813-.856-17.469,2.717-27.652,2.915-8.311,2.325-15.038,1.1-23.8-1.332-9.506-4.453-15.474-9.709-23.423-7.01-10.6-11.319-21.82-17.2-32.96-8.411-15.922-23.1-17.5-39.411-20.194-.163-.027-.325-.058-.488-.085,3.915,8.281,7.607,16.5,12.736,24.391,5.266,8.1,8.395,14.177,9.738,23.855,1.238,8.924,1.837,15.772-1.069,24.229-3.561,10.362-4.032,17.136-2.683,28.145,1.01,8.248,3.564,17.313,2.585,25.573-1.259,10.624-7.892,18.381-4.025,29.776,4.891,14.41,20.886,19.655,24.19,35.586,3.719,17.936,2.59,33.859-2.769,51.2-5.221,16.9-4.838,34.961-10.053,51.74-4.435,14.272-17.182,25.686-30.366,31.56-17.681,7.876-33.808-3.5-51.6.867-15.478,3.8-26.225,1.676-41.5-1.586l-2.3-.494c2.076,2.359,4.168,4.67,6.254,6.869,10.624,11.2,25.465,14.253,40.065,17.3,15.268,3.186,26.011,5.26,41.493,1.509,17.794-4.311,33.906,6.844,51.6-.915,13.19-5.785,25.95-17.014,30.4-31.039,5.234-16.49,4.873-34.236,10.114-50.841C410.105,302.282,411.253,286.639,407.554,269.023Z" fill="#62713d"/>
    </g>
    <g id="Shadow_Crown">
      <path id="Контур_6" data-name="Контур 6" d="M201.449,310.772c-7.166-37.456,21.276-60.471,35-90.945,5.52-12.252,3.978-28.423-.292-41.128-2.8-8.339-8.8-15-11.322-23.417a66.233,66.233,0,0,1,.552-37.139c6.223-18.684,18.044-39.535,29.095-55.419,4.906-7.05,10.857-16.033,18.853-19.112a95.7,95.7,0,0,0-12.779.123c-10.293.867-17.537,11.3-23.335,19.174-11.107,15.076-23,34.855-29.291,52.563a59.513,59.513,0,0,0-.686,35.156c2.486,7.961,8.462,14.241,11.233,22.125,4.222,12.01,5.705,27.311.143,38.928-13.836,28.9-42.355,50.784-35.327,86.213,2.926,14.75,12.4,29.113,18.074,43.067,5.18,12.736,14.079,24.857,23.431,35.481l2.3.494c1.393.3,2.713.571,4.038.846a112.689,112.689,0,0,1-11.45-21.441C213.965,341.577,204.433,326.366,201.449,310.772Z" fill="#8da959"/>
    </g>
  </g>
</svg>
