<svg xmlns="http://www.w3.org/2000/svg" xmlns:xlink="http://www.w3.org/1999/xlink" width="600" height="800" viewBox="0 0 600 800">
  <defs>
    <clipPath id="clip-Artboard_1">
      <rect width="600" height="800"/>
    </clipPath>
  </defs>
  <g id="Artboard_1" data-name="Artboard 1" clip-path="url(#clip-Artboard_1)">
    <rect width="600" height="800" fill="#fff"/>
    <g id="Shadow">
      <path id="Контур_1" data-name="Контур 1" d="M477.264,645c-1.425-5.946-5.023-11.195-4.866-17.2.221-7.192-2.854-12.5-11.883-17.751-7.425-4.287-16.9-4.313-26.1-6.567-10.683-2.624-19.172-8.514-31.4-8.542-11.239-.021-18.478,2.873-26.236,6.483-.108.021-.214.049-.323.071a40.347,40.347,0,0,0-10.551-9.53c-9.582-6.284-21.813-6.322-33.679-9.627-13.786-3.847-24.742-12.482-40.52-12.522-14.5-.03-23.845,4.211-33.856,9.5a118.48,118.48,0,0,0-23.586,7.923c-1.228-2.439-3.479-4.618-7.189-6.777-5.233-3.022-11.913-3.04-18.394-4.628-7.529-1.85-13.512-6-22.129-6.021-7.921-.014-13.023,2.025-18.49,4.569a70.81,70.81,0,0,0-13.155,3.913,73.641,73.641,0,0,0-10.1,1.554c-6.378,1.709-12.227,4.982-12.4,9.293a4.862,4.862,0,0,0,.354,1.889c-.334,1.723-.441,3.471-.851,5.015-.493,1.855-1.053,3.7-1.554,5.55-.566,2.093-2.775,4.321-2.662,6.458.207,4.058,6.571,7.365,10.109,10.54,3.581,3.214,5.372,6.8,9.888,9.406a20.644,20.644,0,0,0,3.485,1.586c5.837,2.064,12.156,1.782,18.29,3.049a169.777,169.777,0,0,0,19.363,3.2l-.021.083c-1.037,4.353-5.082,8.988-4.875,13.432.379,8.442,12.032,15.32,18.51,21.924,6.556,6.686,9.836,14.142,18.1,19.564a35.921,35.921,0,0,0,6.382,3.3c10.688,4.292,22.258,3.706,33.49,6.342,13.322,3.12,25.861,6.15,40.093,7.149,12.114.838,20.6-3.363,28.718-8.947,3.365-2.3,5.639-4.858,8.883-6.817,1.747-.707,3.446-1.444,5.391-2.3,7.067-1.848,14.008-1,20.839-3.888a52.214,52.214,0,0,0,5.68-2.867c2.922.316,5.849.666,8.748,1.265,10.323,2.129,20.04,4.2,31.068,4.877,9.387.572,15.96-2.294,22.254-6.1,2.607-1.57,4.369-3.313,6.883-4.65,1.354-.482,2.671-.985,4.178-1.57,5.475-1.261,10.854-.682,16.148-2.653,7.583-2.831,13.753-7.578,17.246-12.345C480.833,655.818,478.677,651,477.264,645Z" fill="#afafaf" opacity="0.1"/>
    </g>
    <g id="Trunk">
      <path id="Контур_2" data-name="Контур 2" d="M389.321,422.092c-8.088,4.531-8.57,10.391-14.172,16.331-2.57,2.726-4.1,5.477-7.814,7.281-3.125,1.518-6.419,1.958-9.767,2.39,4.458-4.7,3.892-10.744,7.285-16.251.172-.279.011-2.114-.4-1.763-6.758,5.813-4.527,13.133-14.928,17.27-8.64,3.438-17.283,4.571-25.345,8.486,2.613-2.229,4.817-4.4,8.149-6.031,2-.983,4.572-1.373,6.053-2.929,3.724-3.914-.314-8.939,4.776-13.044.5-.4.277-2.663-.364-2.29-3.153,1.836-4.173,3.148-4.933,6.122-1.088,4.262-.434,5.973-5.344,7.982a33.725,33.725,0,0,0-7.523,4.2c-4.72,3.582-8.286,6.01-14.377,8.136-2.289.8-4.748,1.667-7.07,2.7-.277-2.9-.509-5.808-.812-8.709-3.715-35.566-1.448-71.852-1.426-107.578,2.981-1.4,6.189-2.6,9.017-3.738,4.112-1.656,6.944-4.593,9.865-7.4.108-.1.2-.215.3-.319,3.255-.484,5.707-1.7,8.625-2.907,3.017-1.249,6.607-2.134,8.89-4.231,5.649-5.19,4.177-13.773,10.648-18.812.343-.266.473-2.366-.2-2.225-2.361.493-3.159,2.853-4.175,4.387a51.7,51.7,0,0,0-4.368,8.481c-2.066,4.774-7.979,7-13.993,8.525a22.482,22.482,0,0,0,2.051-4.286c1.062-3.156,1.3-9.858,3.621-12.217.779-.792-.058-4.814-.93-4.132-3.122,2.445-3.132,4.463-4.04,7.64-1.721,6.02-5.013,10.124-10.322,14.571-4.539,3.8-9.56,4.892-14.943,7.516.181-11.118,1.191-21.271,6.93-32.409,6.539-12.692,17.3-22.519,21.852-35.965,4.159-1.1-4.755-2.265-7.317-1.867l-1.2.186c-.915.142-2.55.349-2.844,1.192-5.06,14.477-18.374,24.549-25.177,38.3-.03.06-.053.119-.082.178-.076-2.277-.15-4.555-.15-6.817,0-1.11-3.326-1.67-6.862-1.7-4.02-.031-8.311.627-8.311,1.985,0,11.369,1.276,22.871,2.528,34.086,1.21,10.843.172,21.725-.594,32.564-3.338-3.516-7.186-6.773-10.923-10.031-8.573-7.472-13.669-16.325-17.24-25.939-1.355-3.648-1.351-7.328-3.469-10.836-2.939-4.866-7.831-8.086-10.038-13.4-.428-1.027-5.575-.52-5.356.1,1.152,3.272,3.044,5.556,5.244,8.505a33.328,33.328,0,0,1,4.734,8.827c-2.438-.564-5.02-.97-7.177-1.56-5.052-1.383-6.333-4.152-9.274-7.178a76.768,76.768,0,0,1-8.455-10.108c-2.009-2.89-3.7-5.875-6.617-8.293-.191-.159-.2.7-.127.812,2.683,4.226,5.09,8.458,7.8,12.675,2.377,3.7,5.6,6.709,8.315,10.249,1.95,2.547,2.8,4.33,6.341,5.731,3.227,1.276,7.414,1.76,10.865,2.914.159.553.317,1.108.48,1.684,2.048,7.224,3.933,16.025,8.433,22.621,5.744,8.415,14.345,14.28,17.823,23.827,2.236,6.135,3.154,11.517,7.758,15.984-.042,11.034.254,22.068.618,33.1-.16-.118-.286-.247-.455-.363-2.329-1.6-4.574-2.142-7.3-2.915-5.8-1.646-8.8-4.019-13.463-6.885-5.6-3.439-12.045-6.172-17.583-9.49,1.635-1.137,2.283-2.516,2.2-4.956-.159-4.429-3.57-6.678-5.84-10.465-.1-.176-.264-.473-.576-.486l-.4-.016c-.369-.015-.379.735-.373.866a10.769,10.769,0,0,0,1.871,6.04c.949,1.309,3.209,2.753,2.5,4.3-.486,1.059-2.029,1.354-2.993,2.168-3.873-3.256-6.617-7.149-11.656-9.714-1.029-.524-.644,2.339-.443,2.64a59.112,59.112,0,0,0,14.58,14.988c-3.867.02-7.83.338-10.814.138-4.626-.31-9.354-.889-13.067-3.235-4.444-2.808-7.469-6.354-12.354-8.747-.042-.048-.069-.118-.127-.141l-.872-.346c-.828-.328-.875,2.04-.242,2.413,6.518,3.847,11.472,10.644,19.366,12.394,3.62.8,7.494.855,11.173,1.612,4.815.991,13.024,1.713,17.545,3.245a.714.714,0,0,0,.7,0c1.047.614,2.086,1.225,3.181,1.85,6.033,3.447,11.2,6.864,17.4,10.145.526.278,1.008.573,1.472.874,11.812,11.766,5.4,38.809,4.256,51.365-1.51,16.642-3.866,33.674-3.624,50.322.249,17,4.952,35.136.467,51.928a136,136,0,0,1-4.968,15.774c-1.191,2.8-4.059,7.07-7.521,11.374a64.032,64.032,0,0,1-5.843,8.06c-2.885,3.212-13.2,12.14-6.787,15.479,3.468.212,8.778-2.416,12.74-4.911a9.035,9.035,0,0,1,2-.235c4.66.007,3.35,3.447,3.812,5.877.486,2.553,1.535,3.6,4.7,3.476,4.277-.165,5.315-2.769,10.167-.418,1.374.666,2.542,1.468,3.809,2.162,1.758,2.218,5.526,3.3,8.646,3.914,3.731.737,5.424.085,6.094-1.807,1.475-.915,2.939-1.995,4.971-3.226,2.885-1.75.983-1,4.321-2.264,5.229-1.974,1.508,5.571,10.415-2.025a26.618,26.618,0,0,1,1.176-2.566,2.141,2.141,0,0,1,1.7-.5,14.442,14.442,0,0,1,6.6,2.522c.044-.01.092-.018.135-.028a33.633,33.633,0,0,0,3.76,1.875c4.649,1.237,9.154-1.382,8.064-6.608-.473-2.274-3.094-4.362-4.7-6.31-2.739-3.332-6.142-6.424-8.7-9.818a25.943,25.943,0,0,1-2.066-3.323c-1.246-1.472-2.491-2.993-3.729-4.652-7.954-10.66-7.143-28.572-10.806-41.005-5.394-18.31-2.436-35.793-3.352-54.036-.377-7.5-1.28-15-1.777-22.507-.467-7.041-3.259-13.772,3.378-19.73,4.012-3.6,10.663-6.28,15.875-8.877.005,0,.005-.014.005-.014,1.451-.584,2.875-1.129,4.232-1.576,6.906-2.277,14.423-3.06,20.821-6.111,5.262-.452,9.782-.611,14.662-2.262,5.176-1.75,4.854-2.222,7.819-5.96,2.49-3.139,5.266-5.376,7.058-8.839a23.349,23.349,0,0,1,5.845-7.45c2.109-1.914,1.775-1.469,2.849-3.9C389.9,423.551,389.936,421.748,389.321,422.092Z" fill="#987b55"/>
    </g>
    <g id="Shadow_Trunk">
      <path id="Контур_3" data-name="Контур 3" d="M389.321,422.092c-8.088,4.531-8.57,10.391-14.172,16.331-2.57,2.726-4.1,5.477-7.814,7.281-3.125,1.518-6.419,1.958-9.767,2.39,4.458-4.7,3.892-10.744,7.285-16.251.172-.279.011-2.114-.4-1.763-6.758,5.813-4.527,13.133-14.928,17.27-8.64,3.438-17.283,4.571-25.345,8.486,2.613-2.229,4.817-4.4,8.149-6.031,2-.983,4.572-1.373,6.053-2.929,3.724-3.914-.314-8.939,4.776-13.044.5-.4.277-2.663-.364-2.289-3.153,1.835-4.173,3.147-4.933,6.121-1.088,4.262-.434,5.973-5.344,7.983A33.682,33.682,0,0,0,325,449.841c-4.72,3.582-8.286,6.01-14.377,8.136-2.289.8-4.748,1.667-7.07,2.7-.277-2.9-.509-5.808-.812-8.709-3.715-35.566-1.448-71.852-1.426-107.578,2.981-1.4,6.189-2.6,9.017-3.738,4.112-1.656,6.944-4.593,9.865-7.4.108-.1.2-.215.3-.319,3.255-.484,5.707-1.7,8.625-2.907,3.017-1.249,6.607-2.134,8.89-4.231,5.649-5.19,4.177-13.773,10.648-18.812.343-.266.473-2.366-.2-2.225-2.361.493-3.159,2.853-4.175,4.387a51.7,51.7,0,0,0-4.368,8.481c-2.066,4.774-7.979,7-13.993,8.525a22.482,22.482,0,0,0,2.051-4.286c1.062-3.156,1.3-9.858,3.621-12.217.779-.792-.058-4.814-.93-4.132-3.122,2.445-3.132,4.463-4.04,7.64-1.721,6.02-5.013,10.124-10.322,14.571-4.539,3.8-9.56,4.892-14.943,7.516.181-11.118,1.191-21.271,6.93-32.409,6.539-12.692,17.3-22.519,21.852-35.965,4.159-1.1-4.755-2.265-7.317-1.867l-1.2.186c-.915.142-2.55.349-2.845,1.192-5.059,14.477-18.373,24.549-25.176,38.3-.03.06-.053.119-.082.178-.076-2.277-.149-4.555-.149-6.817,0-1.11-3.327-1.67-6.863-1.7.866,8.934,1.95,20.087,2.748,28.114,1.543,15.554,4.814,44.593,3.442,65.141s.2,40.031.329,58.807,4.778,43.928,2.91,55.265-3.648,63.412.442,81.834c1.4,6.3,2.949,12.594,4.23,18.611.306,4.279.733,8.566,1.13,12.826a53.863,53.863,0,0,1-.545,13.148,13.531,13.531,0,0,1-.691,2.2,11.762,11.762,0,0,0-.747,1.488c-.935,1.583-2.021,2.907-2.2,4.823-.088.962-.118,3.535,1.429,3.987l.458.133c.014,0,.021,0,.035,0a2.144,2.144,0,0,0,1.5.382c1.565-.948,3.08-2.084,5.231-3.388,2.885-1.75.983-1,4.321-2.264,5.229-1.974,1.508,5.571,10.415-2.025a26.618,26.618,0,0,1,1.176-2.566,2.141,2.141,0,0,1,1.7-.5,14.442,14.442,0,0,1,6.6,2.522c.044-.01.092-.018.135-.028a33.633,33.633,0,0,0,3.76,1.875c4.649,1.237,9.154-1.382,8.064-6.608-.473-2.274-3.094-4.362-4.7-6.31-2.739-3.332-6.142-6.424-8.7-9.818a25.943,25.943,0,0,1-2.066-3.323c-1.246-1.472-2.491-2.993-3.729-4.652-7.954-10.66-7.143-28.572-10.806-41.005-5.394-18.31-2.436-35.793-3.352-54.036-.377-7.5-1.28-15-1.777-22.507-.467-7.041-3.259-13.772,3.378-19.73,4.012-3.6,10.663-6.28,15.875-8.877.005,0,.005-.014.005-.014,1.451-.584,2.875-1.129,4.232-1.576,6.906-2.277,14.423-3.06,20.821-6.111,5.262-.452,9.782-.611,14.662-2.262,5.176-1.75,4.854-2.222,7.819-5.961,2.49-3.138,5.266-5.375,7.058-8.838a23.349,23.349,0,0,1,5.845-7.45c2.109-1.914,1.775-1.469,2.849-3.9C389.9,423.551,389.936,421.748,389.321,422.092Z" fill="#775f44"/>
    </g>
    <g id="Crown_03">
      <path id="Контур_4" data-name="Контур 4" d="M417.157,414.835a13.151,13.151,0,0,0-8.4-8.658,10.764,10.764,0,0,0-.514-11.53,13.958,13.958,0,0,0-8.96-5.389,23.641,23.641,0,0,0-8.677.03c-1.416-2.158-1.811-4.827-3.758-6.918-7.72-8.293-27.161-7.641-32.775,2.342-9.221-.92-17.378,2.511-20.656,9.032a15.2,15.2,0,0,0-1.412,8.825,27.225,27.225,0,0,0-10.074,2.237,17.027,17.027,0,0,0-5.154,2.37c-.614.434-1.174.859-1.687,1.3a6.359,6.359,0,0,0-2.5,4.667c-.019.266-.008.54-.013.81a4.587,4.587,0,0,0-.3,1.442c-.016.363.033.7.032,1.059a10.724,10.724,0,0,0,.677,5.816c1.807,6.986,7.026,12.208,15.243,14.03a43.82,43.82,0,0,0,17.2,0,54.978,54.978,0,0,0,14.694,1.957,74.835,74.835,0,0,0,14.73-1.656c1.962.208,3.946.409,5.933.57,10.269,1.8,21.215.731,29-4.782,4.156-2.942,7.477-7.465,7.91-12.527A13.032,13.032,0,0,0,417.157,414.835Z" fill="#8da959"/>
    </g>
    <g id="Shadow_Crown_03">
      <path id="Контур_5" data-name="Контур 5" d="M339.289,391.051c3.2-1.216,6.973-.792,10.334-.789a12.222,12.222,0,0,1,4,.615c1.167.38,2.271,1.106,3.427,1.452.039-1.258,1.621-2.573,2.446-3.39a6.874,6.874,0,0,1,2.6-2.1c3.047-.915,6.2-1.649,9.326-2.269a12.507,12.507,0,0,1,3.226-.273,14.513,14.513,0,0,1,2.891.711,36.127,36.127,0,0,1,3.411,1.387,16.08,16.08,0,0,1,3.514,1.846,15.477,15.477,0,0,1,2.64,2.289,19.956,19.956,0,0,0,2.7,2.89c.31.252,1.238,1.163,1.682,1.121.579-.054.505-.806.754-1.132a2.523,2.523,0,0,1,.9-.67,5.4,5.4,0,0,0,.855-.993,11.16,11.16,0,0,1,2.726-1.48,20.9,20.9,0,0,1,2.568-1,23.613,23.613,0,0,0-8.676.029c-1.417-2.158-1.812-4.827-3.759-6.918-7.72-8.293-27.16-7.641-32.775,2.342-9.221-.92-17.378,2.511-20.656,9.032a16.819,16.819,0,0,1,1.65-.81C336.51,392.369,337.832,391.6,339.289,391.051Z" fill="#9eba59"/>
    </g>
    <g id="Shadow_Crown_03-2" data-name="Shadow_Crown_03">
      <path id="Контур_6" data-name="Контур 6" d="M414.266,422.78a64.513,64.513,0,0,1-5.96,2.814,11.127,11.127,0,0,1-2.787.789c-1.171.079-2.167.313-3.349.338a10.793,10.793,0,0,0-1.656.372c-.495.078-1.005-.091-1.5.012a6.648,6.648,0,0,1-1.5.329c-.49.009-.985-.009-1.475-.009-1.169,0-2.342.033-3.51.009a19.146,19.146,0,0,1-3.655-.676c-2.2-.493-4.411-.979-6.648-1.479a33.454,33.454,0,0,0-7.227-.308,10.9,10.9,0,0,0-2.8.274,25.816,25.816,0,0,0-3.02.953c-2.11.8-4.543,1.948-6.807,1.927-2.135-.019-4.254.207-6.309-.435-.915-.286-1.848-.386-2.779-.605a23.711,23.711,0,0,0-2.8-.711,31.6,31.6,0,0,0-3.525-.351,11.9,11.9,0,0,0-2.882.274c-1.127.26-2.216.409-3.35.692a10.381,10.381,0,0,1-2.8.436c-2.215,0-4.847.386-7.01-.069-1.314-.277-2.563-.91-3.858-1.256a19.16,19.16,0,0,1-3.242-1.2,44.056,44.056,0,0,1-6.31-4.216,8.6,8.6,0,0,1-2.462-3.088,5.449,5.449,0,0,1-.344-2.8,13.035,13.035,0,0,1,.078-3.156,8.874,8.874,0,0,0,.273-2.436c0-.248.034-.49.047-.737a6.359,6.359,0,0,0-2.5,4.667c-.019.266-.008.54-.013.81a4.593,4.593,0,0,0-.3,1.442c-.016.363.033.7.032,1.059a10.724,10.724,0,0,0,.677,5.816c1.807,6.986,7.026,12.208,15.243,14.03a43.82,43.82,0,0,0,17.2,0,54.978,54.978,0,0,0,14.694,1.957,74.835,74.835,0,0,0,14.73-1.656c1.962.208,3.946.41,5.933.57,10.269,1.8,21.215.731,29-4.782,4.156-2.942,7.477-7.465,7.91-12.527A10.554,10.554,0,0,1,414.266,422.78Z" fill="#798f4d"/>
    </g>
    <g id="Crown_02">
      <g id="Сгруппировать_1" data-name="Сгруппировать 1">
        <path id="Контур_7" data-name="Контур 7" d="M233.941,387.871a26.13,26.13,0,0,0-3.03-11.086,15.337,15.337,0,0,0-7.991-6.8,15.414,15.414,0,0,0-2.834-3.791c-2.015-6.111-6.036-11.985-12.709-12.524a15.033,15.033,0,0,0-12.654,5.171c-2.432-.182-5.013.871-7.532,3.616A14.655,14.655,0,0,0,173.57,369.6c-3.009,4.764-4.07,11.209-3.405,17.171a50.829,50.829,0,0,0,.99,6.16c.762,3.184,2.061,6.239,4.575,8.175a9.345,9.345,0,0,0,1.1.682,17.668,17.668,0,0,0,1.613,8.2c3.452,7.823,10.759,8.581,17.8,5.03,4.325-2.182,6.6-3.348,11.8-3.491,4.524-.124,10.073,1.3,14.109-1.542a11.35,11.35,0,0,0,4.393-6.309c.453-.209.911-.413,1.342-.636,4.544-2.339,5.965-6.067,6.178-10.484A37.023,37.023,0,0,0,233.941,387.871Z" fill="#8da959"/>
      </g>
    </g>
    <g id="Shadow_Crown_02">
      <path id="Контур_8" data-name="Контур 8" d="M233.162,393.726A13.531,13.531,0,0,1,232,394.6a9.387,9.387,0,0,1-2.644,1.307,14.371,14.371,0,0,1-2.806.647c-.92.152-1.826.3-2.752.423a6.055,6.055,0,0,0-1.761.394,10.789,10.789,0,0,0-1.742.968,7.6,7.6,0,0,0-1.965,2.2c-.23.372-.357.779-.577,1.143a12.866,12.866,0,0,1-.948,1.16c-.858,1.074-2.821,1.072-4.078.921-.4-.049-.746-.213-1.148-.235-.285-.015-.581.006-.866.006-.58,0-1.159.005-1.738,0a14.571,14.571,0,0,0-2.993.387c-.751.153-1.532.171-2.287.314a22.577,22.577,0,0,0-4.573,1.259c-.856.362-1.709.749-2.572,1.094-.581.232-1.135.581-1.735.762a10.225,10.225,0,0,1-2.284.547c-.822.039-1.657-.015-2.481-.006a8.81,8.81,0,0,1-1.386-.232,5.789,5.789,0,0,1-1.027-.087,8.34,8.34,0,0,1-2.411-1.316,6.585,6.585,0,0,1-2.415-3.721,6.13,6.13,0,0,0-1.82-3.267,5.832,5.832,0,0,0-1.855-1.232,16.974,16.974,0,0,0-1.79-.605,2.377,2.377,0,0,1-1.15-.346c-.256-.162-.5-.313-.763-.46a9.1,9.1,0,0,1-1.958-1.313,17.941,17.941,0,0,1-2.014-2.019c-.1-.125-.212-.231-.309-.354.762,3.184,2.061,6.239,4.575,8.175a9.345,9.345,0,0,0,1.1.682,17.668,17.668,0,0,0,1.613,8.2c3.452,7.823,10.759,8.581,17.8,5.03,4.325-2.182,6.6-3.348,11.8-3.491,4.524-.124,10.073,1.3,14.109-1.542a11.35,11.35,0,0,0,4.393-6.309c.453-.209.911-.413,1.342-.636,4.545-2.339,5.965-6.067,6.178-10.484a3.479,3.479,0,0,0-.277.3A6.6,6.6,0,0,1,233.162,393.726Z" fill="#798f4d"/>
    </g>
    <g id="Shadow_Crown_02-2" data-name="Shadow_Crown_02">
      <path id="Контур_9" data-name="Контур 9" d="M222.92,369.99a15.414,15.414,0,0,0-2.834-3.791c-2.015-6.111-6.036-11.985-12.709-12.524a15.033,15.033,0,0,0-12.654,5.171c-2.432-.182-5.013.871-7.532,3.616A14.655,14.655,0,0,0,173.57,369.6a9.593,9.593,0,0,1,1.878-.759c.723-.189,1.427-.4,2.161-.545a14.042,14.042,0,0,1,2.627-.049,9.045,9.045,0,0,1,2.063.107c.7.162,1.237.5,1.909.721.19.062.414.022.6.089.1.035.22.177.318.189.384.05.364.022.651-.308.5-.57,1.144-.922,1.651-1.452A4.929,4.929,0,0,1,189,366.336a19.822,19.822,0,0,1,1.774-.9,11.306,11.306,0,0,1,1.658-.255,9.49,9.49,0,0,1,1.959-.2,15.151,15.151,0,0,1,4.005.327,22.712,22.712,0,0,1,3.133,1.121c.278-.308.381-.692.686-1.007a6.453,6.453,0,0,1,1.19-1.112,6.186,6.186,0,0,1,2.528-.64,8.31,8.31,0,0,1,2.662.6,10.613,10.613,0,0,1,1.342.487c.407.2.694.556,1.109.773.369.193.8.307,1.149.532a7.238,7.238,0,0,1,1.142,1.094,8.091,8.091,0,0,1,.749,1.318,4.448,4.448,0,0,1,.8,1.508,25.806,25.806,0,0,1,1.3,5.171,4.2,4.2,0,0,1,.862-.372,2.973,2.973,0,0,0,.642-.446,3.223,3.223,0,0,1,1.355-.434,16.606,16.606,0,0,1,3.489,0,20.767,20.767,0,0,1,3.372.822,25.349,25.349,0,0,1,3.208,1.258c.48.217,1,.347,1.472.588a3.628,3.628,0,0,1,.33.219A15.337,15.337,0,0,0,222.92,369.99Z" fill="#9eba59"/>
    </g>
    <g id="Crown_01">
      <path id="Контур_10" data-name="Контур 10" d="M488.235,202.865a37.554,37.554,0,0,1-1.264-8.631c-.549-14.3,5.608-28.024-1.258-42.42-6.14-12.878-17.657-25.158-31.682-29.127-1.54-.436-3.1-.78-4.656-1.128-1.115-.249-2.236-.473-3.358-.685,1.122.212,2.243.436,3.358.685-6.15-7.253-14.041-13.135-22.952-15.657-16.489-4.665-34.047-3.752-50.65-8.42-17.041-4.792-32.564-5.439-49.889-1.226-15.387,3.741-19.968,19.73-33.824,25-10.957,4.165-18.718-2.172-29.093-3.1-8.065-.725-16.8,2.071-24.788,3.315-10.664,1.661-17.268,1.395-27.462-1.823-8.319-2.626-14.96-1.831-23.6-.342-9.37,1.617-15.18,4.894-22.885,10.346-10.277,7.272-21.248,11.89-32.092,18.064-15.5,8.826-16.607,23.423-18.759,39.651-.021.162-.046.324-.068.486-2.172,16.116-6.042,32.125-6.387,48.346a94.96,94.96,0,0,0,.522,12.648c1.181,10.163,11.741,17.008,19.714,22.5,7.82,5.388,27.153,16.471,27.608,16.785,5.884,4.054,12.469,8.2,19.348,12.088,10.976,6.21,22.71,11.777,33.609,15.263a58.944,58.944,0,0,0,34.826-.421c7.8-2.711,13.834-8.824,21.552-11.814,11.758-4.557,26.861-6.5,38.536-1.361,2.269,1,4.494,2.1,6.692,3.251,3.085,1.622,6.115,3.367,9.106,5.182,22.149,13.45,42.35,30.394,70.661,23.841,14.511-3.359,28.435-13.189,42.071-19.243,12.448-5.527,24.168-14.717,34.394-24.309,2.27-2.13,4.493-4.272,6.6-6.407,10.752-10.869,13.313-25.657,15.872-40.207C490.717,228.776,492.433,218.075,488.235,202.865Z" fill="#8da959"/>
    </g>
    <g id="Shadow_Crown_01">
      <path id="Контур_11" data-name="Контур 11" d="M135.056,265.627a94.794,94.794,0,0,1-.522-12.648c.344-16.221,4.214-32.229,6.387-48.346.022-.162.046-.323.068-.486,2.152-16.228,3.258-30.825,18.758-39.65,10.844-6.175,21.816-10.793,32.093-18.065,7.705-5.453,13.515-8.729,22.885-10.346,8.639-1.49,15.28-2.284,23.6.342,10.194,3.218,16.8,3.484,27.462,1.823,7.989-1.244,16.723-4.04,24.788-3.315,10.375.932,18.135,7.268,29.092,3.1,13.857-5.268,18.438-21.257,33.825-25,17.324-4.213,32.848-3.567,49.889,1.226,15.052,4.232,30.881,3.919,45.994,7.292-6.15-7.253-14.041-13.135-22.952-15.657-16.489-4.665-34.047-3.752-50.65-8.42-17.041-4.792-32.564-5.439-49.889-1.226-15.387,3.741-19.968,19.73-33.824,25-10.957,4.165-18.718-2.172-29.093-3.1-8.065-.725-16.8,2.071-24.788,3.315-10.664,1.661-17.268,1.395-27.462-1.823-8.319-2.626-14.96-1.831-23.6-.342-9.37,1.617-15.18,4.894-22.885,10.346-10.277,7.272-21.248,11.89-32.092,18.065-15.5,8.825-16.607,23.422-18.759,39.65-.021.162-.046.324-.068.486-2.172,16.116-6.042,32.125-6.387,48.346a94.96,94.96,0,0,0,.522,12.648c1.181,10.163,11.741,17.008,19.714,22.5a258.812,258.812,0,0,0,26.219,15.83C145.62,281.842,136.17,275.21,135.056,265.627Z" fill="#9eba59"/>
    </g>
    <g id="Shadow_Crown_01-2" data-name="Shadow_Crown_01">
      <path id="Контур_12" data-name="Контур 12" d="M485.157,195.816c-.383,1.125.1,1.785-.136,2.766a20.268,20.268,0,0,0-1.005,4.764c-.1,4.558-.061,8.418-1.092,12.783-.454,1.923-1.326,3.705-1.844,5.625-.651,2.411-1.181,4.253-2.907,6.106a23.077,23.077,0,0,0-5.8,11.731c-.675,3.862-1.374,8.516-3.955,11.728-.845,1.053-2.013,1.723-2.766,2.886-.52.8-.62,1.93-1.144,2.766-1.2,1.917-3.212,3.2-4.488,5.107-1.374,2.055-2.257,3.92-4.1,5.669-1.659,1.576-3.169,2.112-5.179,3.128-3.226,1.629-6.3,3.626-9.748,4.888-6.01,2.2-11.788,4.6-18.179,5.771-2.126.391-3.3.232-5.258,1.3a48.326,48.326,0,0,0-4.964,2.978,18.773,18.773,0,0,1-4.078,2.4c-2.319.94-3.485,2.45-5.648,3.617-3.08,1.662-7.059,3.41-10.514,3.517-3.392.1-6.812-.022-10.207-.023-2.43,0-5,.266-7.384-.218a21.785,21.785,0,0,0-5.106-.756c-3.007.035-6.9.63-9.83.047a131.769,131.769,0,0,1-19.554-5.648c-4.058-1.516-7.824-3.4-11.731-5.179-3.058-1.394-6.65-2.433-9.966-3.646a112.932,112.932,0,0,0-22-6.08c-2.24-.334-4.037-1.032-6.329-1-1.971.027-3.945,0-5.916,0H273.852c-2.206,0-4.423-.076-6.627-.023-2.1.051-3.842.71-5.89,1.028-3.629.564-7.34,1.322-10.972,1.9-4.363.7-8.745,2.913-12.755,4.667-1.383.605-2.694,1.339-4.081,1.936-1.869.8-2.94,1.939-4.617,2.984-3.489,2.173-7.283,4.013-10.861,6.076a33.82,33.82,0,0,1-8.745,3.7c-3.187.762-6.359,1.261-9.559,2.173a32.136,32.136,0,0,1-9.038.981c-1.972.03-3,.653-4.869,1.025-1.472.292-3.155-.3-4.645-.1-1.839.251-3.244,1.007-5.156,1.051-.637.014-1.279,0-1.919-.009,10.976,6.21,22.71,11.777,33.608,15.263a58.947,58.947,0,0,0,34.827-.421c7.8-2.711,13.834-8.824,21.552-11.814,11.758-4.557,26.861-6.5,38.536-1.361,2.269,1,4.494,2.1,6.692,3.251,3.085,1.622,6.115,3.367,9.106,5.182,22.149,13.45,42.35,30.394,70.661,23.841,14.511-3.359,28.435-13.189,42.071-19.243,12.448-5.527,24.168-14.717,34.394-24.309,2.27-2.13,4.493-4.272,6.6-6.407,10.752-10.869,13.313-25.657,15.872-40.207,2.676-15.216,4.392-25.917.194-41.127a37.554,37.554,0,0,1-1.264-8.631C486.181,194.741,485.347,195.259,485.157,195.816Z" fill="#798f4d"/>
    </g>
  </g>
</svg>
