<svg xmlns="http://www.w3.org/2000/svg" xmlns:xlink="http://www.w3.org/1999/xlink" width="600" height="800" viewBox="0 0 600 800">
  <defs>
    <clipPath id="clip-Artboard_1">
      <rect width="600" height="800"/>
    </clipPath>
  </defs>
  <g id="Artboard_1" data-name="Artboard 1" clip-path="url(#clip-Artboard_1)">
    <rect width="600" height="800" fill="#fff"/>
    <g id="Shadow">
      <g id="Сгруппировать_1" data-name="Сгруппировать 1" opacity="0.1">
        <path id="Контур_1" data-name="Контур 1" d="M402.511,570.583c14.362,8.357,19.252,16.795,18.9,28.234-.249,9.555,5.473,17.9,7.74,27.361,2.248,9.555,5.677,17.214-1.138,26.451-5.556,7.583-15.37,15.132-27.432,19.636-8.419,3.134-16.975,2.213-25.685,4.219-2.4.931-4.492,1.731-6.644,2.5-4,2.126-6.8,4.9-10.949,7.4-10.011,6.06-20.466,10.618-35.4,9.709-17.542-1.085-33-4.372-49.417-7.758-13.845-2.86-28.1-2.224-41.278-6.881a46.721,46.721,0,0,1-7.866-3.58c-10.191-5.883-14.233-13.973-22.314-21.228-7.986-7.166-22.348-14.628-22.815-23.788-.255-4.821,4.73-9.851,6.009-14.573,1.13-4.175,2.393-8.339,3.505-12.525.926-3.484,1.168-7.429,1.922-11.319a10.96,10.96,0,0,1-.8-4.262c.4-9.731,13.6-17.116,27.992-20.973,7.083-1.9,15.1-2.6,22.794-3.506a159.654,159.654,0,0,1,29.688-8.832c12.34-5.742,23.853-10.344,41.73-10.311,19.447.043,32.95,9.412,49.941,13.587C375.625,563.723,390.7,563.764,402.511,570.583Z" fill="#afafaf"/>
      </g>
    </g>
    <g id="Trunk">
      <g id="Сгруппировать_2" data-name="Сгруппировать 2">
        <path id="Контур_2" data-name="Контур 2" d="M280.07,628.776c-.005-.142-.006-.282-.01-.423C280.059,628.4,280.061,628.511,280.07,628.776Z" fill="#957a56"/>
        <path id="Контур_3" data-name="Контур 3" d="M387.292,355.369c-.076-.521-.544-1.039-.668-.212-.609,4.058-.133,8.132-1.117,12.158-1.553,6.347-4.976,9.482-9.707,13.094-.027.021-.06.045-.088.065,2.035-6.474,2.506-13.712.857-19.6-.482-1.72-1.191-.058-1.157.88.148,4.01.028,10.065-.994,13.866-1.86,6.92-5.73,11.286-11.015,15.626a48.049,48.049,0,0,1-12.206,7.5c-.934.42-7.478,3.444-11.633,5.761a5.408,5.408,0,0,0,.578-1.345c.081-.319.1-1.151-.322-1.262-.821-.217-1.386.6-1.946,1.118-.9.832-1.674,1.787-2.557,2.635-.271.261-.545.5-.819.75a24.928,24.928,0,0,0-2.74,1.723A55.446,55.446,0,0,0,313.495,419.9c.487-7.414,1.32-14.822,2.376-22.215.068-.479.09-.944.147-1.419,1.143-1.18,2.289-2.365,3.421-3.517,2.67-2.718,7.247-4.5,11.043-6.586a55.4,55.4,0,0,0,5.6-2.495,39.8,39.8,0,0,0,12.767-10.281c6.195-7.817,6.17-16.707,4.734-24.952a.662.662,0,0,0-1.323.016c-1.144,6.385-.511,12.755-4.286,18.885-3-.616-6.817-1.716-8.48-4.339-1.962-3.1-1.846-7-2.122-10.538-.029-.376-.28-.353-.307.007-.335,4.493-.618,8.689,1.434,12.884,1.282,2.619,4.363,4.021,7.309,4.847-5.62,6.41-15.017,10.334-25.593,14.687-1.463.6-2.765,1.212-3.979,1.83a31.869,31.869,0,0,0-1.812-8.282c-1.04-2.8-2.319-5.512-3.391-8.208-.064-.354-.125-.709-.191-1.062a69.932,69.932,0,0,1-1.013-12.563,14.452,14.452,0,0,1,.578-1.343,16.064,16.064,0,0,1,5.084-3.935c2.271-1.2,5.069-2.163,6.815-3.606,3.07-2.539,2.774-5.94,2.8-8.828.007-.873-1.032-.858-1.06.013-.123,3.992-1.33,6.665-6.906,9.369a52.275,52.275,0,0,0-6.116,3.13c-.287.193-.468.414-.723.615a.377.377,0,0,0-.448-.173c.05-4.051.115-8.112-.212-12.3a1.248,1.248,0,0,0-.4-.886c-.478-.427-1.213-.151-1.243.907-.214,7.451-5.639,14.931-5.609,22.48.022,5.369,1.223,10.62,1.862,15.878l-.954-.2c-.094-.077-.19-.149-.282-.235-.158-.142-.288-.066-.391.093a45.208,45.208,0,0,1-8.145-2.3,41.28,41.28,0,0,1-12.355-8.1c-4.036-4.043-1.893-9.737-6.641-13.411-.164-.127-.224.26-.165.323,1.822,1.975,1.5,5.582,2.217,7.68a17.419,17.419,0,0,0,4.081,6.744,36.156,36.156,0,0,0,9.762,7.307c.011.026.009.077.027.083a26.807,26.807,0,0,1,4.343,2.41c1.634.925,3.57,1.31,5.15,2.3a8.4,8.4,0,0,1,3.6,5.746,24.64,24.64,0,0,1-1.146,5.674c-1.079,3.223-2.049,6.517-2.94,9.849a60.355,60.355,0,0,0-11.257-7.849c-.208-.377-.422-.439-.607-.338-9.5-5.252-20.872-9.756-31.394-15.941a39.769,39.769,0,0,1-6.4-4.648c2.3-1,4.877-1.9,6.656-3.209,2.124-1.558,3.633-2.964,4.122-4.859.895-3.468-2.153-7.011-2.283-10.44-.009-.243-.387-.422-.424-.073-.274,2.549.968,4.721,1.081,7.229.17,3.751-2.234,6.077-7.74,8.251-1.134.448-2.318.787-3.4,1.189-8.256-8.679-8.43-18.256-19.215-26.807-.331-.262-.458.622-.28.8,6.069,6.005,7.564,12.632,10.4,19.043-5.084-1.935-9.372-2.45-12.754-5.914-2.733-2.8-5.97-5.678-7.451-8.732-.132-.273-.325.1-.27.223,1.591,3.569,5.077,7.093,8.222,10.346,3.028,3.134,8.245,3.86,13.1,5.9a29.8,29.8,0,0,0,6.025,8.388.981.981,0,0,0,.42.41c.16.149.295.3.46.449,6.7,6,15.384,9.848,24.928,14.567a94.959,94.959,0,0,1,20.142,13.3,1.228,1.228,0,0,0,.036.387c4.851,12.878.737,24.417.33,37.434-.346,11.111-1.56,22.448-.314,33.518,1.583,14.054,3.057,28.722,3.435,43.161-.075,5.077-.063,10.166-.5,15.291-.7,8.124-2.18,16.1-3.547,24.119-1.157,4.5-2.423,8.952-3.6,13.339-1.841,6.874-1.021,14.131-3.613,20.886-1.972,5.14-5.56,8.557-8.533,12.986A23.127,23.127,0,0,0,274.133,608c-2.469,3.769-4.876,8.007-5.831,12.124-1.026,2.035-1.759,5.391.015,6.857,1.941,1.6,4.5.761,6.621.085a17.769,17.769,0,0,0,2.252-.891c.9-.427,1.888-1.261,2.83-1.646a2.837,2.837,0,0,1,.075.88,25.427,25.427,0,0,0-.035,2.944,8.456,8.456,0,0,0,.378,1.722c1.579,2.634,5.264,1.039,7.458.327a15.133,15.133,0,0,1,5.01-1.066c.187,0,.371.021.556.034a7.159,7.159,0,0,1,.9.569c1.275.992,1.832,2.664,2.691,3.967,2.529,3.834,6,6.754,11.044,4.947l-.019.016c-.011.008-.013.047-.013.047a2.6,2.6,0,0,0,1.138-.077c.024.034.05.063.094.051.864-.227,1.617-.343,2.363-.5a.6.6,0,0,0,.653-.168,8.814,8.814,0,0,0,1.954-.736,27.409,27.409,0,0,0,6.206-4.421c1.516-1.453,2.469-3.76,4.412-4.693,1.868-.9,3.9-.374,5.877-.285.049.038.09.084.139.122,1.645.519,1.9,1.129,3.719,1.012,4.932-.317,4.9-6.333,10.414-4.9,2.216.574,4.279,3.475,6.717,4.023,1.986.446,3.008-.361,4.837-.718.865-.168,1.136-1.523,1.171-2.241.22-4.518-1.766-7.8-4.5-10.694a8.426,8.426,0,0,0-.7-1.128,10.439,10.439,0,0,0-3.1-2.426,68.867,68.867,0,0,1-5.711-5.27c-1.9-3.336-4.8-6.651-6.3-9.682-7.263-14.609-9.177-29.275-12.317-44.4-2.359-11.355-4.181-23-3.932-34.6-.408-3.577-.812-7.154-.916-10.762-.191-6.6-.065-13.251-1.079-19.794-1.1-7.1-3.669-14.866-4.331-22.431a45.244,45.244,0,0,1-.5-5.189,15.088,15.088,0,0,1,.154-2.555l-.005-.046c-.05-.357-.075-.715-.122-1.072.1-3.356.356-6.627.3-9.613-.145-8.009-1.408-16.157,5.576-23.63,3.253-3.481,7.683-6.323,12.605-8.927,3.889-1.26,7.823-2.406,11.015-4.3,3.916-2.321,10.021-4.88,14.171-8.122a41.035,41.035,0,0,0,12.575-10.115,30.26,30.26,0,0,0,3.111-5.259c.931-.531,1.826-1.024,2.511-1.485,3.285-2.21,6.306-4.613,8.308-8.145C387.978,369.725,388.256,362.036,387.292,355.369Z" fill="#957a56"/>
      </g>
    </g>
    <g id="Shadow_Trunk">
      <path id="Контур_4" data-name="Контур 4" d="M387.292,355.369c-.076-.521-.544-1.039-.668-.212-.609,4.058-.133,8.132-1.117,12.158-1.553,6.348-4.976,9.482-9.707,13.094-.027.021-.06.045-.088.065,2.035-6.473,2.506-13.712.857-19.6-.482-1.72-1.191-.058-1.157.88.148,4.01.028,10.065-.994,13.866-1.86,6.92-5.73,11.286-11.015,15.626a48.049,48.049,0,0,1-12.206,7.5c-.934.42-7.478,3.444-11.633,5.761a5.408,5.408,0,0,0,.578-1.345c.081-.319.1-1.151-.322-1.262-.821-.217-1.386.6-1.946,1.118-.9.832-1.674,1.787-2.557,2.635-.271.261-.545.5-.819.75a24.928,24.928,0,0,0-2.74,1.723A55.446,55.446,0,0,0,313.495,419.9c.486-7.414,1.32-14.822,2.376-22.215.068-.479.09-.944.147-1.419,1.143-1.18,2.289-2.365,3.421-3.517,2.67-2.718,7.247-4.5,11.043-6.586a55.4,55.4,0,0,0,5.6-2.495,39.8,39.8,0,0,0,12.767-10.281c6.195-7.817,6.17-16.707,4.734-24.952a.662.662,0,0,0-1.323.016c-1.144,6.385-.511,12.755-4.286,18.885-3-.616-6.817-1.716-8.48-4.339-1.963-3.1-1.846-7-2.122-10.538-.029-.376-.28-.353-.307.007-.335,4.493-.618,8.689,1.434,12.884,1.282,2.619,4.363,4.021,7.309,4.847-5.62,6.41-15.017,10.334-25.593,14.687-1.463.6-2.765,1.212-3.979,1.83a31.869,31.869,0,0,0-1.812-8.282c-1.04-2.8-2.319-5.512-3.391-8.208-.064-.354-.125-.709-.191-1.062a69.932,69.932,0,0,1-1.013-12.563,14.452,14.452,0,0,1,.578-1.343,16.064,16.064,0,0,1,5.084-3.935c2.271-1.2,5.069-2.163,6.815-3.606,3.07-2.539,2.774-5.94,2.8-8.828.007-.873-1.032-.858-1.06.013-.123,3.992-1.33,6.665-6.906,9.369a52.182,52.182,0,0,0-6.115,3.13c-.288.193-.469.414-.724.615a.376.376,0,0,0-.448-.172c.05-4.052.115-8.113-.212-12.3a1.248,1.248,0,0,0-.4-.886c-.323,5.932-.894,14.894-1.617,19.958-1.147,8.027,0,13,1.911,22.17s1.529,7.262,0,19.876-5.351,36.7-4.205,49.31,3.823,28.916,4.205,44.655-.852,38.292,1.294,48.23,5.969,25.61,4.822,37.842-.765,23.316-1.529,30.579c-.16,1.52-.265,3.708-.316,6.2-.39,1.2-.773,2.4-1.173,3.591a38.066,38.066,0,0,0-1.66,5.515c-.073.392-.685,4.491-.454,2.592a38.081,38.081,0,0,0-.837,5.4c-.057,1.285.462,2.639-1.606,4.287-.011.008-.013.047-.013.047a2.6,2.6,0,0,0,1.138-.077c.024.034.05.063.094.051.864-.227,1.617-.343,2.363-.5a.6.6,0,0,0,.653-.168,8.814,8.814,0,0,0,1.954-.736,27.409,27.409,0,0,0,6.206-4.421c1.516-1.453,2.469-3.76,4.412-4.693,1.868-.9,3.9-.374,5.877-.284.049.037.09.083.139.121,1.645.519,1.9,1.129,3.719,1.012,4.932-.317,4.9-6.333,10.414-4.9,2.216.574,4.279,3.475,6.717,4.023,1.986.446,3.008-.361,4.837-.718.865-.168,1.136-1.523,1.171-2.241.22-4.518-1.766-7.8-4.5-10.694a8.426,8.426,0,0,0-.7-1.128,10.439,10.439,0,0,0-3.1-2.426,68.867,68.867,0,0,1-5.711-5.27c-1.9-3.336-4.8-6.651-6.3-9.682-7.263-14.609-9.177-29.275-12.317-44.394-2.359-11.356-4.181-23-3.932-34.606-.408-3.576-.812-7.153-.916-10.761-.191-6.6-.065-13.251-1.079-19.794-1.1-7.1-3.669-14.866-4.331-22.431a45.244,45.244,0,0,1-.5-5.189,15.088,15.088,0,0,1,.154-2.555l-.005-.046c-.05-.357-.075-.715-.122-1.072.1-3.356.356-6.627.3-9.613-.145-8.009-1.408-16.157,5.576-23.63,3.253-3.48,7.683-6.323,12.605-8.927,3.889-1.26,7.823-2.406,11.015-4.3,3.916-2.321,10.021-4.88,14.171-8.122a41.035,41.035,0,0,0,12.575-10.115,30.26,30.26,0,0,0,3.111-5.259c.931-.531,1.826-1.024,2.511-1.485,3.285-2.21,6.306-4.613,8.308-8.145C387.978,369.725,388.256,362.036,387.292,355.369Z" fill="#765f44"/>
    </g>
    <g id="Crown">
      <path id="Контур_5" data-name="Контур 5" d="M439,211.8c2.719-5.608,3.969-11.59,2.86-17.021-1.912-9.361-12.191-18.464-21.7-17.821a23.346,23.346,0,0,0,.1-5.791c-.5-4.478-2.581-8.45-7.488-10.31-6.6-2.5-12.216-.676-16.989,2.962-3.014-6.175-8.442-8.738-14.475-8.677,2.7-3.443,6.846-7.81,7.545-9.421a41.393,41.393,0,0,0,3.62-12.645c1.593-6.811.268-13.652-6.684-19.284-10.6-8.584-26.993-8.847-39.826-6.91-2.56.387-5.1.934-7.63,1.514a34.214,34.214,0,0,0-11.755,1.734,7.96,7.96,0,0,0-1.819,1.021c-.554.072-1.106.154-1.663.208-10.833,1.061-22.534-1.882-33.11-4.181-25-5.434-65.292-7.663-78.7,20.153-3.369,6.988-1.824,12.713-8.615,17.911-5.719,4.376-12.38,6.552-16.855,12.536-7.247,9.69-5.377,24.583-3.1,35.691,1.55,7.557,7.867,14.176,3.688,21.906-3.834,7.092-12.126,11.11-15.72,18.621-3.213,6.713-1.69,13.172-.241,20.059a62.123,62.123,0,0,1,.958,6.352,48.769,48.769,0,0,1,.06,10.419,106.341,106.341,0,0,1-6.757,13.45c-2.82,5.058-5.473,10.007-6.41,14.609-1.233,6.054-.266,8.548,1.806,13.96,2.473,6.46,4.89,14.261,7.84,20.428,5.075,10.606,13.759,13.5,24.344,15.254a37.446,37.446,0,0,1,4.764,1.152c2.752.261,5.5.585,8.205,1.014.422-.041.828-.087,1.249-.129.689.129,1.364.27,2.07.387a38.447,38.447,0,0,1,5.1,1.26,44.128,44.128,0,0,0,10.578.579c.566-.04,1.1-.061,1.627-.068,3.033-.222,6.137-.36,9.191-.348,6.056,2.413,9.048,6.441,15.389,11.8,6.92,5.849,16.659,7.837,25.958,8.093a46.767,46.767,0,0,0,8.139-.69,21.726,21.726,0,0,1,2.464-.755,50.447,50.447,0,0,0,7.468-2.655c4.193-2.42,6.733-6.335,10.826-8.413a47.681,47.681,0,0,0,4.757.866,32.537,32.537,0,0,0,12.574-1,92.321,92.321,0,0,0,9.453,1.942,32.658,32.658,0,0,0,3.741.187,34.143,34.143,0,0,0,16.219-4.175,32.919,32.919,0,0,0,7.687-1.162,92.546,92.546,0,0,0,9.454,1.942c23.168,2.683,41.445-19.837,46.38-39.788,2.3-9.28,3.925-16.03,8.954-24.607,4.774-8.144,12.616-18.918,9.22-28.66-.788-2.264-3.724-5.1-6.633-8.114a36.847,36.847,0,0,1-5.354-6.544,34.857,34.857,0,0,0,15.414-10.978c4.262-5.566,5.137-14.512,3.953-21.281A28.046,28.046,0,0,0,439,211.8Z" fill="#8da959"/>
    </g>
    <g id="Shadow_Crown">
      <path id="Контур_6" data-name="Контур 6" d="M433.742,265.293c-.788-2.264-3.724-5.1-6.633-8.114-4.576,6.533-9.743,12.887-11.541,20.155-4.935,19.95-23.212,42.471-46.38,39.788a92.275,92.275,0,0,1-9.454-1.942,32.868,32.868,0,0,1-7.687,1.162,34.156,34.156,0,0,1-16.219,4.176,32.885,32.885,0,0,1-3.741-.188,92.313,92.313,0,0,1-9.453-1.942,32.521,32.521,0,0,1-12.575,1,47.984,47.984,0,0,1-4.756-.865c-4.442,2.255-7.028,6.7-11.912,9.015-1.456.691-3.237,1.392-5.132,2.082-.691.253-1.352.507-2.085.753-.263-.064-.539-.085-.8-.154a49.089,49.089,0,0,1-8.968.817c-9.3-.256-19.038-2.244-25.958-8.094-6.341-5.36-9.333-9.388-15.389-11.8a133.47,133.47,0,0,0-16.239,1.023c-.388.048-.714.121-1.065.184a55.169,55.169,0,0,0-9.191-2.631c-.706-.117-1.381-.257-2.07-.386-1.336.131-2.694.256-3.963.41-.387.046-.714.12-1.064.184a55.077,55.077,0,0,0-9.191-2.632c-10.585-1.753-19.269-4.648-24.343-15.253-1.149-2.4-2.215-5.051-3.237-7.772-2.82,5.058-5.473,10.007-6.41,14.609-1.233,6.054-.266,8.548,1.806,13.96,2.473,6.46,4.89,14.261,7.841,20.428,5.074,10.606,13.758,13.5,24.343,15.254a37.446,37.446,0,0,1,4.764,1.152c2.752.261,5.5.585,8.205,1.014.422-.041.828-.087,1.249-.129.689.129,1.364.27,2.07.387a38.447,38.447,0,0,1,5.1,1.26,44.128,44.128,0,0,0,10.578.579c.567-.04,1.1-.061,1.627-.068,3.033-.222,6.137-.36,9.191-.348,6.056,2.413,9.048,6.441,15.389,11.8,6.92,5.85,16.659,7.837,25.958,8.093a46.767,46.767,0,0,0,8.139-.69,21.726,21.726,0,0,1,2.464-.755,50.447,50.447,0,0,0,7.468-2.655c4.193-2.42,6.733-6.335,10.826-8.413a47.715,47.715,0,0,0,4.756.866,32.541,32.541,0,0,0,12.575-1,92.321,92.321,0,0,0,9.453,1.942,32.658,32.658,0,0,0,3.741.187,34.143,34.143,0,0,0,16.219-4.175,32.919,32.919,0,0,0,7.687-1.162,92.546,92.546,0,0,0,9.454,1.942c23.168,2.683,41.445-19.837,46.38-39.788,2.3-9.28,3.925-16.03,8.954-24.607C429.3,285.809,437.138,275.035,433.742,265.293Z" fill="#798f4d"/>
    </g>
    <g id="Shadow_Crown-2" data-name="Shadow_Crown">
      <path id="Контур_7" data-name="Контур 7" d="M172.3,254.144a7.85,7.85,0,0,0,.457-2.01,20.809,20.809,0,0,1-.033-2.663,7.933,7.933,0,0,1,.769-1.681c.4-.954.47-1.973.841-2.932a16.029,16.029,0,0,1,2.916-4.642c1.279-1.586,2.367-3.325,3.622-4.977.645-.85,1.307-.823,2.2-1.377a14.743,14.743,0,0,0,2.135-2.061c1.808-1.715,3.294-2.663,4.668-4.8.956-1.492,2.37-2.529,3.06-4.194a50.485,50.485,0,0,1,2.231-4.979c.937-1.713.543-2.858.85-4.644a30.459,30.459,0,0,0,.53-5.477v-4.645c0-1.57.391-3.593.031-5.106-.339-1.42-1.163-2.544-1.205-4.194a30.685,30.685,0,0,0-.036-4.3,40.906,40.906,0,0,1-.544-10.79,29.514,29.514,0,0,1,1.176-4.739,14.928,14.928,0,0,1,2.6-5.915,15.353,15.353,0,0,1,4.229-3.965c1.018-.562,1.547-1.524,2.58-2.061.851-.442,1.91-.419,2.757-.812a24.544,24.544,0,0,1,2.178-1.208,11.681,11.681,0,0,0,2.842-1.29c1.546-1.013,3.357-1.59,4.831-2.726a59.4,59.4,0,0,0,4.8-4.544,8.69,8.69,0,0,0,2.2-2.541c.571-1.089,1.363-2.127,2.032-3.191,1.137-1.809,2.2-3.616,3.192-5.512,1.012-1.938,2.315-3.666,3.36-5.6,2.094-3.876,5.14-6.257,8.531-8.987a14.641,14.641,0,0,1,5.063-2.475c2.218-.529,4.639-.318,6.854-.744,1.435-.276,2.937-.456,4.326-.822,1.789-.471,3.69-.324,5.519-.741,3.086-.7,6.9-.13,10.085-.13a39.973,39.973,0,0,1,5.316-.021c.728.1,1.288.509,2.009.632.781.132,1.527-.11,2.322.1,1.22.321,2.321.7,3.452,1.048,1.354.419,2.817.4,4.223.693,3.915.808,7.892,1.445,11.83,2.247,4.09.834,8.363.526,12.57.526a43.269,43.269,0,0,0,8.84-.871c3.482-.719,7.322-.984,10.721-2.16a53.022,53.022,0,0,1,10.6-2.79c3.428-.43,6.512-1.734,10.012-1.724,2.911.008,5.464-.58,8.385-.58,3.793,0,7.627.319,10.766,2.612,1.417,1.035,3.52,1.567,4.663,2.934a20.259,20.259,0,0,1,2.764,5.042c.983,2.539.408,5.994.408,8.692a25.614,25.614,0,0,1,.041,4.514c-.192.963-.943,1.348-1.509,2.081a30.626,30.626,0,0,0-1.653,2.857c-1.823,2.982-4.83,5.153-5.017,8.99-.082,1.661-.2,2.942,1.164,4.09s3.308,1.217,4.941,1.786a40.579,40.579,0,0,1,4.384,1.511,6.847,6.847,0,0,1,2,1.6,13.879,13.879,0,0,0,3.241,2.167c2.523,1.62,3.167,6.58,4.178,9.187.531,1.372.624,2.724,1.426,4.055,1.374,2.28,2.828-1.215,3.921-2.279a15.242,15.242,0,0,1,4.578-3.569,50.769,50.769,0,0,1,5-2.184,16.26,16.26,0,0,1,2.081-.164,21.18,21.18,0,0,1,2.545-.545c1.927-.089,3.891.013,5.821.013.092,0,.183.009.276.009-.5-4.478-2.581-8.45-7.488-10.31-6.6-2.5-12.216-.676-16.989,2.962-3.014-6.175-8.442-8.738-14.475-8.677,2.7-3.443,6.846-7.81,7.545-9.421a41.393,41.393,0,0,0,3.62-12.645c1.593-6.811.268-13.652-6.684-19.284-10.6-8.584-26.993-8.847-39.826-6.91-2.56.387-5.1.934-7.63,1.514a34.214,34.214,0,0,0-11.755,1.734,7.96,7.96,0,0,0-1.819,1.021c-.554.072-1.106.154-1.663.208-10.833,1.061-22.534-1.882-33.11-4.181-25-5.434-65.292-7.663-78.7,20.153-3.369,6.988-1.824,12.713-8.615,17.911-5.719,4.376-12.38,6.552-16.855,12.536-7.247,9.69-5.377,24.583-3.1,35.691,1.55,7.557,7.867,14.176,3.688,21.906-3.833,7.092-12.126,11.11-15.72,18.621-3.213,6.713-1.69,13.172-.241,20.059a62.123,62.123,0,0,1,.958,6.352,9.24,9.24,0,0,0,.735-1.907C172.454,257.088,171.934,255.556,172.3,254.144Z" fill="#9eba59"/>
    </g>
  </g>
</svg>
