<svg xmlns="http://www.w3.org/2000/svg" xmlns:xlink="http://www.w3.org/1999/xlink" width="600" height="800" viewBox="0 0 600 800">
  <defs>
    <clipPath id="clip-Artboard_1">
      <rect width="600" height="800"/>
    </clipPath>
  </defs>
  <g id="Artboard_1" data-name="Artboard 1" clip-path="url(#clip-Artboard_1)">
    <rect width="600" height="800" fill="#fff"/>
    <g id="Shadow">
      <g id="Сгруппировать_1" data-name="Сгруппировать 1" opacity="0.1">
        <path id="Контур_1" data-name="Контур 1" d="M394.635,627.169c14.253,8.294,19.106,16.668,18.757,28.021-.247,9.483,5.432,17.769,7.681,27.154,2.232,9.483,5.635,17.084-1.129,26.251-5.514,7.526-15.253,15.018-27.225,19.488-8.356,3.11-16.847,2.2-25.49,4.187-2.38.924-4.459,1.718-6.6,2.479-3.968,2.11-6.75,4.861-10.866,7.341-9.936,6.013-20.311,10.537-35.129,9.635-17.409-1.077-32.747-4.339-49.044-7.7-13.739-2.838-27.892-2.208-40.966-6.829a46.355,46.355,0,0,1-7.806-3.553c-10.114-5.839-14.126-13.868-22.146-21.067-7.925-7.112-22.178-14.518-22.643-23.609-.252-4.785,4.7-9.777,5.964-14.464,1.122-4.143,2.376-8.275,3.479-12.429.919-3.459,1.16-7.373,1.908-11.234a10.875,10.875,0,0,1-.794-4.23c.4-9.657,13.5-16.986,27.781-20.814,7.03-1.882,14.986-2.578,22.622-3.48a158.412,158.412,0,0,1,29.464-8.765c12.246-5.7,23.672-10.266,41.414-10.234,19.3.044,32.7,9.341,49.565,13.485C367.952,620.361,382.913,620.4,394.635,627.169Z" fill="#afafaf"/>
      </g>
    </g>
    <g id="Trunk">
      <path id="Контур_2" data-name="Контур 2" d="M330.588,642.048c-4.916-14.576-1.912-29.566-4.072-44.3-1.757-11.987-6.045-23.93-4.344-35.978a28.261,28.261,0,0,0-4.637.613c-2.843.366-5.714.565-8.661.743-.162.009-.331.006-.493.015-3.779.205-7.7.178-11.482.208-1.237.009-2.35-.074-3.411-.17a20.729,20.729,0,0,0-7.387.153c-.123.031-.238.046-.364.08a2.372,2.372,0,0,0-1.52,2.06c-.039.537-.066,1.077-.073,1.621.014.154,0,.306.026.458-.01.005-.017.019-.027.023,0,2.729.285,5.491.12,7.886-.528,7.715.535,15.36.861,23.064.491,11.581-.441,23.368-4.317,34.707-3.139,9.183-7.565,20.388-17.424,27.678-1.432,1.059-12.037,5.867-19.072,10.344a39.279,39.279,0,0,0-3.565,2.519c.053.032.074.068.13.1,2.471,1.367,9.939-.461,13.835-1.5,1.583-.536,2.989-1.028,4-1.333.132.033.238.075.363.111,6.169-1.863,12.222-4.256,19.051-4.853,5.547-.486,5.548,12.372,10.078,13.766,2.91,2.584,6.533,7.853,13.451,1.859q.814-.568,1.7-1.09c1.9-.521,2.177-1.043,4.4-1.362,6.441-.926,13.394-9.389,18.724-7.837,1.447.422,6.226,3.752,9.573,4.26,2.7-.173,5.072-.842,6.028-2.58a1.94,1.94,0,0,1,1.19-.726,3.357,3.357,0,0,1,1.28-.121c2.928.376,5.685-1.547,7.858-3.12C342.3,661.838,333.856,651.74,330.588,642.048Z" fill="#987b55"/>
    </g>
    <g id="Shadow_Trunk">
      <path id="Контур_3" data-name="Контур 3" d="M352.408,669.341c-10.557-7.571-18.442-17.273-21.82-27.293-4.916-14.576-1.912-29.566-4.072-44.3-1.757-11.987-6.045-23.93-4.344-35.978a28.261,28.261,0,0,0-4.637.613c-2.843.366-5.714.565-8.661.743-.162.009-.331.006-.493.015-1.211,11.583,2.767,23.075,4.457,34.607,2.16,14.737-.843,29.727,4.072,44.3,3.379,10.02,12.288,20.482,22.845,28.053,1.042.747,2.246,1.6,3.515,2.481a3.357,3.357,0,0,1,1.28-.121c3.409.438,5.565-1.506,7.857-3.12C352.525,669.425,352.631,669.5,352.408,669.341Z" fill="#80623e"/>
    </g>
    <g id="Crown">
      <path id="Контур_4" data-name="Контур 4" d="M422.558,488.269c-3.38-13.9-4.13-28.369-7.727-42.181-3.633-13.948-21.263-20.72-19.8-36.279.59-6.283,1.846-9.779.823-16.255-1.152-7.3-2.881-14.277-3.209-21.834-.268-6.17-.35-12.066-2.61-17.975-3.078-8.049-7.471-11.812-6.664-21.333.379-4.473,1.459-8.215.966-12.807-.7-6.465-.318-14.481-1.5-20.841-1.125-6.066-4.059-8.53-7.078-13.528-6.288-10.4-.333-17.021-1.994-26.718-2.09-12.2-11.514-18.816-9.622-32.113.74-5.2,2.445-9.8,1.852-15.022-.939-8.278-6.339-17.211-8.55-24.818-2.29-7.877-6.99-13.811-8.141-22.062-.657-4.715.417-9.939.372-14.711-.051-5.559-2.326-9.633-4.049-14.786-1.206-3.609-.474-8.943-2.222-12.281-2.424-4.632-8.608-5.574-11.171-10.321-4.524-8.378-6.251-21.633-8.111-30.971-1.42-7.129-4.45-11.678-6.722-18.358-3.487-10.248-4.34-15.01-16.815-15.239-1.062.02-2.037.081-2.97.166.692,1.981,1.293,4.3,2.05,7.012-.62-2.22-1.142-4.12-1.689-5.845-.12-.38-.236-.809-.361-1.167-7.351.675-10.893,3.579-13.267,11.679-1.941,6.625-5.337,11.983-6.742,18.477-1.809,8.359-1.037,15.642-5.571,23.477-1.472,2.542-4.392,4.9-5.314,7.66-.88,2.631-.461,4.946-.257,7.7.588,7.927-1.184,6-6.98,10.673-8.2,6.61-10.609,15.259-10.408,25.3.08,3.97.827,8.838.269,12.71-.892,6.181-3.939,8.465-6.319,13.793-2.785,6.236-3.978,13.066-6.385,19.575-1.664,4.5-4.058,9.012-4.438,13.883-.355,4.544,1.516,9,2.144,13.475,1.49,10.617-2.729,16.087-6.973,25.812-4.873,11.164,1.566,21.789-4.642,33.019-2.927,5.3-5.935,7.36-7.079,13.528-.712,3.838.2,7.442.142,11.24-.053,3.762-1.53,7.135-1.8,10.778-.419,5.722,2.548,11.841,1.913,17.336-.682,5.913-5.393,10.239-7.454,15.627-2.257,5.9-2.321,11.79-2.609,17.975-.426,9.14-3.374,17.448-4.169,26.318-.458,5.116,2.157,8.711,2.315,13.6.268,8.305-7.885,16.108-12.907,22-8.767,10.286-9.461,22.447-11.158,35.595-1.618,12.542-6.3,24.252-9.046,36.493-2.383,10.632-3.9,16.5,2.088,25.644,4.256,6.505,8.8,13.145,13.243,19.758,4.089,6.084,6.358,12.679,13.279,15.966a18.074,18.074,0,0,0,2.332.906c5.587,1.756,11.835,1.119,17.188,3.8a64.493,64.493,0,0,0,14.123,5.5c.59.163,1.18.326,1.84.5,10.246,2.74,19.475,8.81,30.028,11.066,6.084,1.3,11.481-.778,17.4-.673a21.023,21.023,0,0,1,6.241,1.171c7.082-.194,13.9.224,20.95-1,8.736-1.516,16.943.4,25.676-.319.924-.075,1.845-.188,2.766-.3a123.952,123.952,0,0,0,17.906-6.728c5.677-2.5,11.448-2.428,16.981-4.749,5.935-2.488,9.988-5.407,16.764-6.9,13.9-3.07,17.887-9.933,25.314-21.87,3.423-5.5,6.9-10.9,10.52-16.134,2.134-3.083,3.651-4.511,4.434-8.289C432.275,511.9,425.118,498.8,422.558,488.269Z" fill="#6b8241"/>
    </g>
    <g id="Shadow_Crown">
      <path id="Контур_5" data-name="Контур 5" d="M422.558,488.269c-3.38-13.9-4.13-28.369-7.727-42.181-3.633-13.948-21.263-20.72-19.8-36.279.59-6.283,1.846-9.779.823-16.255-1.152-7.3-2.881-14.277-3.209-21.834-.268-6.17-.35-12.066-2.61-17.975-3.078-8.049-7.471-11.811-6.664-21.333.379-4.473,1.459-8.215.966-12.807-.7-6.465-.318-14.481-1.5-20.841-1.125-6.066-4.059-8.53-7.078-13.528-6.288-10.4-.333-17.021-1.994-26.718-2.09-12.2-11.514-18.816-9.622-32.113.74-5.2,2.445-9.8,1.852-15.022-.939-8.278-6.339-17.211-8.55-24.818-2.29-7.877-6.99-13.811-8.141-22.062-.657-4.715.417-9.939.372-14.711-.051-5.559-2.326-9.633-4.049-14.786-1.206-3.609-.474-8.943-2.222-12.281-2.424-4.632-8.608-5.574-11.171-10.321-4.524-8.378-6.251-21.633-8.111-30.971-1.42-7.129-4.45-11.678-6.722-18.358-3.487-10.248-4.34-15.01-16.815-15.239-1.062.02-2.037.081-2.97.166.692,1.981,1.293,4.3,2.05,7.012,1.9,6.8,4.668,11.507,5.689,18.705,1.336,9.427,2.32,22.757,6.37,31.374,2.3,4.883,8.417,6.169,10.579,10.928,1.559,3.431.53,8.716,1.534,12.386,1.432,5.241,3.477,9.436,3.218,14.989-.222,4.767-1.585,9.923-1.192,14.667.689,8.3,5.051,14.489,6.9,22.482,1.784,7.718,6.677,16.939,7.154,25.255.3,5.25-1.659,9.748-2.687,14.9-2.63,13.171,6.41,20.3,7.816,32.6,1.118,9.775-5.2,16.048.5,26.788,2.737,5.158,5.529,7.782,6.314,13.9.823,6.416,0,14.4.333,20.892.237,4.612-1.05,8.289-1.678,12.733-1.337,9.462,2.84,13.464,5.464,21.672,1.927,6.025,1.68,11.917,1.6,18.092-.094,7.564,1.244,14.626,1.988,21.979.66,6.523-.789,9.944-1.729,16.184-2.328,15.453,14.9,23.2,17.747,37.327,2.821,13.991,2.764,28.474,5.363,42.546,1.969,10.659,8.384,24.138,5.446,35.172-.993,3.729-2.588,5.07-4.89,8.029-3.906,5.022-7.678,10.221-11.4,15.523-8.081,11.5-12.441,18.134-26.494,20.423-6.849,1.116-11.058,3.8-17.123,5.959-5.653,2.008-11.412,1.618-17.22,3.795-8.8,3.3-18.939,7.012-28.4,6.734-4.856-.143-9.894-2.228-14.681-1.948-3.141.183-5.661,1.516-8.583,2.183a4.623,4.623,0,0,1-5.529.084,4.628,4.628,0,0,1-5.361-.6c-3.8-1.1-6.807-3.063-11.269-3.391-.775-.057-1.543-.073-2.307-.067.59.163,1.18.326,1.841.5,10.245,2.74,19.474,8.81,30.027,11.066,6.084,1.3,11.481-.778,17.4-.673a21.023,21.023,0,0,1,6.241,1.171c7.082-.194,13.9.224,20.95-1,8.736-1.516,16.943.4,25.676-.319.924-.075,1.845-.188,2.766-.3a123.894,123.894,0,0,0,17.9-6.728c5.678-2.5,11.449-2.428,16.982-4.748,5.935-2.489,9.988-5.408,16.764-6.9,13.9-3.07,17.887-9.933,25.314-21.87,3.423-5.5,6.9-10.9,10.52-16.134,2.134-3.083,3.651-4.511,4.434-8.289C432.275,511.9,425.118,498.8,422.558,488.269Z" fill="#62713d"/>
    </g>
    <g id="Shadow_Crown-2" data-name="Shadow_Crown">
      <path id="Контур_6" data-name="Контур 6" d="M186.083,543.147c-5.985-9.548-4.471-15.67-2.088-26.769,2.744-12.777,7.428-25,9.046-38.093,1.7-13.725,2.39-26.42,11.158-37.157,5.022-6.15,13.175-14.295,12.907-22.963-.158-5.108-2.773-8.861-2.315-14.2.794-9.259,3.743-17.931,4.169-27.472.288-6.457.352-12.6,2.609-18.763,2.061-5.625,6.771-10.141,7.454-16.313.635-5.736-2.332-12.124-1.913-18.1.267-3.8,1.744-7.323,1.8-11.251.055-3.964-.854-7.725-.142-11.732,1.144-6.438,4.152-8.593,7.079-14.121,6.207-11.723-.231-22.814,4.642-34.468,4.244-10.151,8.463-15.861,6.973-26.944-.628-4.675-2.5-9.323-2.144-14.067.38-5.084,2.774-9.794,4.438-14.492,2.407-6.794,3.6-13.924,6.385-20.433,2.38-5.562,5.427-7.945,6.319-14.4.558-4.042-.189-9.123-.269-13.267-.2-10.482,2.211-19.512,10.408-26.412,5.795-4.878,7.568-2.866,6.98-11.141-.2-2.874-.623-5.291.257-8.037.921-2.876,3.842-5.342,5.313-8,4.535-8.179,3.763-15.781,5.572-24.507,1.4-6.779,4.8-12.372,6.742-19.287.162-.578.345-1.069.519-1.6-.12-.38-.236-.809-.361-1.167-7.351.675-10.893,3.579-13.267,11.679-1.941,6.625-5.337,11.983-6.742,18.477-1.809,8.359-1.037,15.642-5.571,23.477-1.472,2.543-4.392,4.9-5.314,7.66-.88,2.631-.462,4.946-.257,7.7.588,7.927-1.184,6-6.98,10.673-8.2,6.61-10.609,15.259-10.408,25.3.08,3.97.827,8.838.269,12.71-.892,6.181-3.939,8.465-6.319,13.793-2.785,6.236-3.978,13.066-6.385,19.575-1.664,4.5-4.058,9.012-4.438,13.883-.355,4.544,1.516,9,2.144,13.475,1.49,10.617-2.729,16.087-6.973,25.812-4.873,11.164,1.565,21.789-4.642,33.019-2.927,5.3-5.935,7.361-7.079,13.528-.712,3.838.2,7.442.142,11.24-.053,3.762-1.53,7.135-1.8,10.778-.419,5.722,2.548,11.841,1.913,17.336-.683,5.913-5.393,10.239-7.454,15.627-2.257,5.9-2.321,11.79-2.609,17.975-.426,9.14-3.374,17.448-4.169,26.318-.458,5.116,2.157,8.711,2.315,13.6.268,8.3-7.885,16.107-12.907,22-8.767,10.286-9.461,22.447-11.158,35.595-1.618,12.542-6.3,24.252-9.046,36.493-2.383,10.632-3.9,16.5,2.088,25.644,4.256,6.505,8.8,13.145,13.243,19.758,4.089,6.084,6.358,12.679,13.279,15.966a18.074,18.074,0,0,0,2.332.906c-.793-1.408-1.6-2.831-2.5-4.23C194.882,556.869,190.338,549.937,186.083,543.147Z" fill="#8da959"/>
    </g>
  </g>
</svg>
